<svg xmlns="http://www.w3.org/2000/svg" viewBox="0 0 82.5 79.5" xmlns:v="https://vecta.io/nano"><path d="M48.64 57.54c1.88-.23 3.65-.52 5.38-1.02 2.39-.68 4.62-1.68 6.55-3.29 2.31-1.93 3.79-4.4 4.64-7.26.84-2.82 1.11-5.72.94-8.65-.19-3.32-1.38-6.27-3.56-8.8-.25-.3-.32-.53-.2-.91.84-2.51.79-5.06.14-7.6-.16-.63-.4-1.24-.59-1.86-.07-.22-.2-.31-.43-.34-.97-.12-1.91.06-2.84.31-2.1.56-4 1.56-5.85 2.68l-1.28.82a.71.71 0 0 1-.66.12c-1.82-.51-3.67-.83-5.54-1.03-2.09-.22-4.19-.24-6.29-.1-2.3.15-4.57.52-6.79 1.13-.31.08-.52-.03-.75-.18-1.25-.83-2.55-1.59-3.91-2.23-1.34-.64-2.73-1.17-4.2-1.42-.68-.12-1.36-.17-2.07-.03-.42.93-.68 1.9-.88 2.89-.47 2.37-.43 4.72.38 7.01.11.31-.03.47-.2.67-1.65 1.92-2.75 4.11-3.29 6.58-.33 1.51-.42 3.04-.35 4.59.09 1.99.31 3.97.84 5.9.76 2.76 2.06 5.21 4.17 7.18 1.78 1.66 3.88 2.76 6.17 3.52 1.93.64 3.93 1 5.94 1.26l.31.04c-.04.08-.05.15-.09.19-1.22 1.23-1.86 2.75-2.15 4.42-.07.43-.24.66-.65.8-1.11.4-2.24.7-3.43.76-2.66.12-4.79-.91-6.43-2.98-.31-.4-.58-.83-.86-1.25-.95-1.42-2.07-2.65-3.65-3.4-1.01-.48-2.07-.63-3.17-.42-.11.02-.21.04-.31.08-.57.2-.68.55-.35 1.05.32.48.76.84 1.25 1.11.95.52 1.66 1.28 2.28 2.13.87 1.21 1.62 2.48 2.18 3.87.81 2.03 2.32 3.32 4.36 4.03 1.67.58 3.4.71 5.14.58l2.8-.3.5-.05.04.4.06 6.52c0 .23-.02.47-.07.7-.18.79-.74 1.32-1.54 1.39-.44.03-.92.02-1.33-.13C20.34 74 13.56 68.6 8.67 60.84c-2.7-4.28-4.42-8.94-5.26-13.92-.38-2.2-.55-4.42-.53-6.65.05-5.43 1.14-10.64 3.38-15.59C9.34 17.88 14 12.41 20.22 8.27A37.75 37.75 0 0 1 34.9 2.45a38.96 38.96 0 0 1 10.06-.4c4.48.4 8.76 1.54 12.83 3.44 3.82 1.78 7.26 4.13 10.32 7.04 3.34 3.18 6.03 6.84 8.06 10.97a37.94 37.94 0 0 1 3.51 11.31c.34 2.34.49 4.68.4 7.04-.2 5.22-1.37 10.21-3.58 14.95-1.98 4.25-4.64 8.01-7.98 11.29-4.12 4.04-8.91 7.03-14.36 8.92-.37.13-.78.18-1.17.18-1.08 0-1.8-.72-1.83-1.8-.02-.92 0-1.85 0-2.77v-8.64c-.02-1.57-.34-3.1-1.11-4.49-.3-.55-.71-1.04-1.08-1.56-.08-.11-.18-.21-.33-.39z" fill="none" stroke="#000" stroke-miterlimit="10" stroke-width="2"/></svg>