<svg xmlns="http://www.w3.org/2000/svg" viewBox="0 0 72.5 73" fill="none" stroke="#231f20" stroke-miterlimit="10" stroke-width="2" xmlns:v="https://vecta.io/nano"><path d="M69.5 67.71c0 1.86-.93 2.76-2.76 2.76h-9.49c-1.67 0-2.56-.77-2.61-2.42l-.05-6.69.05-13.9c0-2.05-.11-4.12-.81-6.09-1.02-2.88-3.04-4.46-5.94-4.63-3.17-.19-5.66 1.21-6.99 3.92-1.04 2.08-1.53 4.29-1.53 6.61v20.51c0 1.8-.89 2.69-2.71 2.69h-9.15c-1.75 0-2.68-.92-2.68-2.65V27.47c0-1.67.91-2.57 2.55-2.58h9.49c1.61 0 2.48.9 2.49 2.52v2.87c1.65-2.31 3.55-4 6.02-4.85 5.12-1.77 10.25-1.83 15.26.35 3.39 1.48 5.5 4.24 6.85 7.61 1.26 3.12 1.79 6.41 1.84 9.75l.17 24.57zm-48.8-55.8c0 5.14-4.24 9.38-9.37 9.37-5.09 0-9.35-4.2-9.33-9.35.03-5.42 4.23-9.35 9.34-9.4 5.14-.05 9.36 4.22 9.36 9.37zm-2.05 15.86v17.21 22.38c0 2.24-.89 3.12-3.14 3.12H6.95c-1.93 0-2.83-.91-2.83-2.87V27.69c0-1.9.88-2.78 2.78-2.79h8.91c1.9 0 2.84.93 2.84 2.88z"/></svg>